<mxfile host="app.diagrams.net" modified="2022-10-07T14:42:00.046Z" agent="5.0 (Windows NT 10.0; Win64; x64) AppleWebKit/537.36 (KHTML, like Gecko) Chrome/106.0.0.0 Safari/537.36" etag="Tra1c-m29ZrvDNFyy_57" version="20.4.0" type="github">
  <diagram id="Ee9s-W-hiH09DrzuSm6O" name="Страница 1">
    <mxGraphModel dx="1117" dy="541" grid="1" gridSize="10" guides="1" tooltips="1" connect="1" arrows="1" fold="1" page="1" pageScale="1" pageWidth="827" pageHeight="1169" math="0" shadow="0">
      <root>
        <mxCell id="0" />
        <mxCell id="1" parent="0" />
        <mxCell id="plw8cePdsiT2w4CJzT8i-1" value="Actor" style="shape=umlActor;verticalLabelPosition=bottom;verticalAlign=top;html=1;outlineConnect=0;" vertex="1" parent="1">
          <mxGeometry x="480" y="280" width="30" height="60" as="geometry" />
        </mxCell>
        <mxCell id="plw8cePdsiT2w4CJzT8i-2" value="Заказать ИТ-мощности" style="ellipse;whiteSpace=wrap;html=1;" vertex="1" parent="1">
          <mxGeometry x="280" y="20" width="140" height="70" as="geometry" />
        </mxCell>
        <mxCell id="plw8cePdsiT2w4CJzT8i-3" value="Рассчитать стоимость&lt;br&gt;ИТ-мощности" style="ellipse;whiteSpace=wrap;html=1;" vertex="1" parent="1">
          <mxGeometry x="100" y="80" width="140" height="70" as="geometry" />
        </mxCell>
        <mxCell id="plw8cePdsiT2w4CJzT8i-4" value="Extends" style="endArrow=block;endSize=16;endFill=0;html=1;rounded=0;exitX=1;exitY=0.5;exitDx=0;exitDy=0;entryX=0;entryY=0.5;entryDx=0;entryDy=0;" edge="1" parent="1" source="plw8cePdsiT2w4CJzT8i-3" target="plw8cePdsiT2w4CJzT8i-2">
          <mxGeometry width="160" relative="1" as="geometry">
            <mxPoint x="370" y="200" as="sourcePoint" />
            <mxPoint x="530" y="200" as="targetPoint" />
          </mxGeometry>
        </mxCell>
        <mxCell id="plw8cePdsiT2w4CJzT8i-5" value="Стандартный заказ" style="ellipse;whiteSpace=wrap;html=1;" vertex="1" parent="1">
          <mxGeometry x="20" y="200" width="140" height="70" as="geometry" />
        </mxCell>
        <mxCell id="plw8cePdsiT2w4CJzT8i-6" value="Не стандартный заказ" style="ellipse;whiteSpace=wrap;html=1;" vertex="1" parent="1">
          <mxGeometry x="180" y="200" width="140" height="70" as="geometry" />
        </mxCell>
        <mxCell id="plw8cePdsiT2w4CJzT8i-7" value="Extends" style="endArrow=block;endSize=16;endFill=0;html=1;rounded=0;entryX=0.5;entryY=1;entryDx=0;entryDy=0;exitX=0.5;exitY=0;exitDx=0;exitDy=0;" edge="1" parent="1" source="plw8cePdsiT2w4CJzT8i-5" target="plw8cePdsiT2w4CJzT8i-3">
          <mxGeometry width="160" relative="1" as="geometry">
            <mxPoint x="370" y="200" as="sourcePoint" />
            <mxPoint x="530" y="200" as="targetPoint" />
          </mxGeometry>
        </mxCell>
        <mxCell id="plw8cePdsiT2w4CJzT8i-8" value="Extends" style="endArrow=block;endSize=16;endFill=0;html=1;rounded=0;exitX=0.5;exitY=0;exitDx=0;exitDy=0;" edge="1" parent="1" source="plw8cePdsiT2w4CJzT8i-6">
          <mxGeometry width="160" relative="1" as="geometry">
            <mxPoint x="260" y="170" as="sourcePoint" />
            <mxPoint x="170" y="150" as="targetPoint" />
          </mxGeometry>
        </mxCell>
        <mxCell id="plw8cePdsiT2w4CJzT8i-9" value="" style="endArrow=none;html=1;edgeStyle=orthogonalEdgeStyle;rounded=0;entryX=0.5;entryY=0.5;entryDx=0;entryDy=0;entryPerimeter=0;exitX=1;exitY=0.5;exitDx=0;exitDy=0;" edge="1" parent="1" source="plw8cePdsiT2w4CJzT8i-2" target="plw8cePdsiT2w4CJzT8i-1">
          <mxGeometry relative="1" as="geometry">
            <mxPoint x="370" y="200" as="sourcePoint" />
            <mxPoint x="530" y="200" as="targetPoint" />
          </mxGeometry>
        </mxCell>
        <mxCell id="plw8cePdsiT2w4CJzT8i-12" value="&lt;span style=&quot;font-size:10.0pt;mso-bidi-font-size:10.5pt;&lt;br/&gt;font-family:&amp;quot;Calibri Light&amp;quot;,sans-serif;mso-fareast-font-family:Calibri;&lt;br/&gt;mso-bidi-font-family:&amp;quot;Times New Roman&amp;quot;;mso-ansi-language:RU;mso-fareast-language:&lt;br/&gt;RU;mso-bidi-language:AR-SA&quot;&gt;Сформировать список ИТ-мощностей&amp;nbsp;&lt;/span&gt;" style="ellipse;whiteSpace=wrap;html=1;" vertex="1" parent="1">
          <mxGeometry x="600" y="20" width="140" height="70" as="geometry" />
        </mxCell>
        <mxCell id="plw8cePdsiT2w4CJzT8i-13" value="Связаться с тех.поддержкой" style="ellipse;whiteSpace=wrap;html=1;" vertex="1" parent="1">
          <mxGeometry x="620" y="1040" width="140" height="70" as="geometry" />
        </mxCell>
        <mxCell id="plw8cePdsiT2w4CJzT8i-14" value="Администратор" style="shape=umlActor;verticalLabelPosition=bottom;verticalAlign=top;html=1;" vertex="1" parent="1">
          <mxGeometry x="490" y="500" width="30" height="60" as="geometry" />
        </mxCell>
        <mxCell id="plw8cePdsiT2w4CJzT8i-19" value="" style="endArrow=none;html=1;edgeStyle=orthogonalEdgeStyle;rounded=0;exitX=0;exitY=0.5;exitDx=0;exitDy=0;entryX=0.5;entryY=0;entryDx=0;entryDy=0;entryPerimeter=0;" edge="1" parent="1" source="plw8cePdsiT2w4CJzT8i-12" target="plw8cePdsiT2w4CJzT8i-1">
          <mxGeometry relative="1" as="geometry">
            <mxPoint x="350" y="50" as="sourcePoint" />
            <mxPoint x="490" y="290" as="targetPoint" />
          </mxGeometry>
        </mxCell>
        <mxCell id="plw8cePdsiT2w4CJzT8i-20" value="Авторизоваться на портале" style="ellipse;whiteSpace=wrap;html=1;" vertex="1" parent="1">
          <mxGeometry x="630" y="910" width="120" height="80" as="geometry" />
        </mxCell>
        <mxCell id="plw8cePdsiT2w4CJzT8i-21" value="Редактировать профиль" style="ellipse;whiteSpace=wrap;html=1;" vertex="1" parent="1">
          <mxGeometry x="630" y="770" width="120" height="80" as="geometry" />
        </mxCell>
        <mxCell id="plw8cePdsiT2w4CJzT8i-23" value="Постановка ИС на резервное копирование" style="ellipse;whiteSpace=wrap;html=1;" vertex="1" parent="1">
          <mxGeometry x="30" y="640" width="120" height="80" as="geometry" />
        </mxCell>
        <mxCell id="plw8cePdsiT2w4CJzT8i-24" value="Управлять заявкой на расчет ИТ-мощности" style="ellipse;whiteSpace=wrap;html=1;" vertex="1" parent="1">
          <mxGeometry x="30" y="330" width="120" height="80" as="geometry" />
        </mxCell>
        <mxCell id="plw8cePdsiT2w4CJzT8i-25" value="Управлять заявкой на выделение ИТ-мощности" style="ellipse;whiteSpace=wrap;html=1;" vertex="1" parent="1">
          <mxGeometry x="30" y="430" width="120" height="80" as="geometry" />
        </mxCell>
        <mxCell id="plw8cePdsiT2w4CJzT8i-26" value="Уведомить пользователя" style="ellipse;whiteSpace=wrap;html=1;" vertex="1" parent="1">
          <mxGeometry x="640" y="320" width="120" height="80" as="geometry" />
        </mxCell>
        <mxCell id="plw8cePdsiT2w4CJzT8i-27" value="Журналирование действий пользователя" style="ellipse;whiteSpace=wrap;html=1;" vertex="1" parent="1">
          <mxGeometry x="630" y="630" width="120" height="80" as="geometry" />
        </mxCell>
        <mxCell id="plw8cePdsiT2w4CJzT8i-28" value="" style="endArrow=none;html=1;edgeStyle=orthogonalEdgeStyle;rounded=0;" edge="1" parent="1" target="plw8cePdsiT2w4CJzT8i-24">
          <mxGeometry relative="1" as="geometry">
            <mxPoint x="490" y="310" as="sourcePoint" />
            <mxPoint x="524.9999999999973" y="675" as="targetPoint" />
          </mxGeometry>
        </mxCell>
        <mxCell id="plw8cePdsiT2w4CJzT8i-29" value="" style="endArrow=none;html=1;edgeStyle=orthogonalEdgeStyle;rounded=0;entryX=1;entryY=0.5;entryDx=0;entryDy=0;exitX=0.5;exitY=0.5;exitDx=0;exitDy=0;exitPerimeter=0;" edge="1" parent="1" source="plw8cePdsiT2w4CJzT8i-1" target="plw8cePdsiT2w4CJzT8i-25">
          <mxGeometry relative="1" as="geometry">
            <mxPoint x="450" y="420" as="sourcePoint" />
            <mxPoint x="524.9999999999973" y="675" as="targetPoint" />
          </mxGeometry>
        </mxCell>
        <mxCell id="plw8cePdsiT2w4CJzT8i-30" value="Создание ВМ" style="ellipse;whiteSpace=wrap;html=1;" vertex="1" parent="1">
          <mxGeometry x="620" y="440" width="140" height="70" as="geometry" />
        </mxCell>
        <mxCell id="plw8cePdsiT2w4CJzT8i-31" value="Настройка ВМ" style="ellipse;whiteSpace=wrap;html=1;" vertex="1" parent="1">
          <mxGeometry x="620" y="530" width="140" height="70" as="geometry" />
        </mxCell>
        <mxCell id="plw8cePdsiT2w4CJzT8i-32" value="" style="endArrow=none;html=1;edgeStyle=orthogonalEdgeStyle;rounded=0;entryX=0;entryY=0.5;entryDx=0;entryDy=0;exitX=0.5;exitY=0.5;exitDx=0;exitDy=0;exitPerimeter=0;" edge="1" parent="1" source="plw8cePdsiT2w4CJzT8i-14" target="plw8cePdsiT2w4CJzT8i-30">
          <mxGeometry relative="1" as="geometry">
            <mxPoint x="450" y="420" as="sourcePoint" />
            <mxPoint x="524.9999999999973" y="675" as="targetPoint" />
          </mxGeometry>
        </mxCell>
        <mxCell id="plw8cePdsiT2w4CJzT8i-33" value="" style="endArrow=none;html=1;edgeStyle=orthogonalEdgeStyle;rounded=0;entryX=0;entryY=0.5;entryDx=0;entryDy=0;exitX=0.5;exitY=0.5;exitDx=0;exitDy=0;exitPerimeter=0;" edge="1" parent="1" source="plw8cePdsiT2w4CJzT8i-14" target="plw8cePdsiT2w4CJzT8i-31">
          <mxGeometry relative="1" as="geometry">
            <mxPoint x="450" y="420" as="sourcePoint" />
            <mxPoint x="524.9999999999973" y="675" as="targetPoint" />
          </mxGeometry>
        </mxCell>
      </root>
    </mxGraphModel>
  </diagram>
</mxfile>
